<?xml version="1.0" encoding="UTF-8" standalone="no"?><!DOCTYPE svg PUBLIC "-//W3C//DTD SVG 1.1//EN" "http://www.w3.org/Graphics/SVG/1.1/DTD/svg11.dtd"><svg width="100%" height="100%" viewBox="0 0 1920 1080" version="1.1" xmlns="http://www.w3.org/2000/svg" xmlns:xlink="http://www.w3.org/1999/xlink" xml:space="preserve" xmlns:serif="http://www.serif.com/" style="fill-rule:evenodd;clip-rule:evenodd;stroke-linejoin:round;stroke-miterlimit:2;"><path d="M1921.19,1081.66l-1922.17,-1.538c0,0 84.286,-64.706 211.981,-162.739c72.363,-55.554 159.075,-138.93 262.729,-168.366c82.099,-23.314 170.17,17.343 258.124,-7.816c105.599,-30.208 194.377,-118.865 305.62,-147.008c116.736,-29.532 174.759,18.496 305.965,18.496c31.179,0 168.91,-86.467 196.618,-94.997c50.933,-15.681 144.158,14.669 199.567,-7.586c63.307,-25.427 117.976,-84.771 181.128,-85.348l0.437,656.902Z" style="fill:url(#_Linear1);"/><defs><linearGradient id="_Linear1" x1="0" y1="0" x2="1" y2="0" gradientUnits="userSpaceOnUse" gradientTransform="matrix(1921.73,0,0,657.941,-0.979551,751.148)"><stop offset="0" style="stop-color:#d90004;stop-opacity:1"/><stop offset="0.54" style="stop-color:#c3070b;stop-opacity:1"/><stop offset="1" style="stop-color:#732222;stop-opacity:1"/></linearGradient></defs></svg>