<?xml version="1.0" encoding="UTF-8" standalone="no"?><!DOCTYPE svg PUBLIC "-//W3C//DTD SVG 1.1//EN" "http://www.w3.org/Graphics/SVG/1.1/DTD/svg11.dtd"><svg width="100%" height="100%" viewBox="0 0 900 900" version="1.1" xmlns="http://www.w3.org/2000/svg" xmlns:xlink="http://www.w3.org/1999/xlink" xml:space="preserve" xmlns:serif="http://www.serif.com/" style="fill-rule:evenodd;clip-rule:evenodd;stroke-linecap:round;stroke-linejoin:round;stroke-miterlimit:1.5;"><rect id="Artboard1" x="0" y="0" width="900" height="900" style="fill:none;"/><rect x="122.165" y="165.773" width="647.01" height="571.546" style="fill:#fff;"/><g><g><path d="M449.052,6.367c245.997,0 445.716,199.719 445.716,445.717c0,245.997 -199.719,445.716 -445.716,445.716c-245.998,0 -445.717,-199.719 -445.717,-445.716c0,-245.998 199.719,-445.717 445.717,-445.717Zm0,156.513c159.615,0 289.203,129.588 289.203,289.204c0,159.616 -129.588,289.203 -289.203,289.203c-159.616,0 -289.204,-129.587 -289.204,-289.203c0,-159.616 129.588,-289.204 289.204,-289.204Z" style="fill:#dadbbf;stroke:#fff;stroke-width:1px;"/><path d="M293.308,434.818l75.2,-76.799l-25.878,-27.59l77.39,-79.316l0.247,-57.292l184.444,189.904l-256.394,264.856l198.183,-0.421l-75.052,-78.385l27.533,-28.504l104.421,107.471l0,39.721l-311.967,0.287l-0.278,-39.939l256.465,-264.636l-100.199,-103.728l-48.018,49.709l24.98,25.86l-76.606,80.454l22.483,23.274l77.438,-77.581l27.479,27.872l-104.64,108.9l-79.104,-81.029l1.873,-3.088" style="fill:#732222;"/></g><g transform="matrix(0.372524,-0.928022,0.928022,0.372524,-346.228,742.366)"><g transform="matrix(-0.62266,0.782492,-0.782492,-0.62266,727.797,363.222)"><text x="276.32px" y="357.093px" style="font-family:'Montserrat-Bold', 'Montserrat';font-weight:700;font-size:90px;fill:#732121;">C</text></g><g transform="matrix(-0.505255,0.86297,-0.86297,-0.505255,707.874,415.254)"><text x="234.903px" y="410.541px" style="font-family:'Montserrat-Bold', 'Montserrat';font-weight:700;font-size:73px;fill:#732121;">y</text></g><g transform="matrix(-0.390149,0.920752,-0.920752,-0.390149,708.383,429.769)"><text x="211.865px" y="449.48px" style="font-family:'Montserrat-Bold', 'Montserrat';font-weight:700;font-size:73px;fill:#732121;">b</text></g><g transform="matrix(-0.272174,0.962248,-0.962248,-0.272174,722.52,448.312)"><text x="191.713px" y="497.406px" style="font-family:'Montserrat-Bold', 'Montserrat';font-weight:700;font-size:73px;fill:#732121;">e</text></g><g transform="matrix(-0.166841,0.985984,-0.985984,-0.166841,744.51,456.952)"><text x="179.192px" y="543.032px" style="font-family:'Montserrat-Bold', 'Montserrat';font-weight:700;font-size:73px;fill:#732121;">r</text></g><g transform="matrix(0.0123539,0.999924,-0.999924,0.0123539,765,418.905)"><text x="170.444px" y="596.708px" style="font-family:'Montserrat-Bold', 'Montserrat';font-weight:700;font-size:90px;fill:#732121;">C</text></g><g transform="matrix(0.174234,0.984704,-0.984704,0.174234,800.572,382.27)"><text x="172.363px" y="668.466px" style="font-family:'Montserrat-Bold', 'Montserrat';font-weight:700;font-size:73px;fill:#732121;">h</text></g><g transform="matrix(0.308333,0.951279,-0.951279,0.308333,814.297,326.572)"><text x="182.574px" y="723.254px" style="font-family:'Montserrat-Bold', 'Montserrat';font-weight:700;font-size:73px;fill:#732121;">e</text></g><g transform="matrix(0.414039,0.910259,-0.910259,0.414039,815.313,270.48)"><text x="197.568px" y="768.513px" style="font-family:'Montserrat-Bold', 'Montserrat';font-weight:700;font-size:73px;fill:#732121;">s</text></g><g transform="matrix(0.505908,0.862588,-0.862588,0.505908,800.396,212.932)"><text x="214.33px" y="805.132px" style="font-family:'Montserrat-Bold', 'Montserrat';font-weight:700;font-size:73px;fill:#732121;">s</text></g><g transform="matrix(0.66519,0.746675,-0.746675,0.66519,723.475,103.304)"><text x="246.546px" y="858.378px" style="font-family:'Montserrat-Bold', 'Montserrat';font-weight:700;font-size:90px;fill:#732121;">A</text></g><g transform="matrix(0.767899,0.640571,-0.640571,0.767899,651.562,22.7563)"><text x="294.379px" y="910.495px" style="font-family:'Montserrat-Bold', 'Montserrat';font-weight:700;font-size:73px;fill:#732121;">c</text></g><g transform="matrix(0.834076,0.55165,-0.55165,0.834076,572.483,-25.4607)"><text x="328.566px" y="938.94px" style="font-family:'Montserrat-Bold', 'Montserrat';font-weight:700;font-size:73px;fill:#732121;">a</text></g><g transform="matrix(0.896697,0.442645,-0.442645,0.896697,465.035,-63.1363)"><text x="367.785px" y="964.751px" style="font-family:'Montserrat-Bold', 'Montserrat';font-weight:700;font-size:73px;fill:#732121;">d</text></g><g transform="matrix(0.946808,0.321799,-0.321799,0.946808,339.838,-80.9104)"><text x="414.663px" y="987.513px" style="font-family:'Montserrat-Bold', 'Montserrat';font-weight:700;font-size:73px;fill:#732121;">e</text></g><g transform="matrix(0.986275,0.16511,-0.16511,0.986275,172.085,-62.1498)"><text x="459.874px" y="1004.02px" style="font-family:'Montserrat-Bold', 'Montserrat';font-weight:700;font-size:73px;fill:#732121;">m</text></g><g transform="matrix(0.99993,0.011828,-0.011828,0.99993,12.0488,-6.27769)"><text x="536.756px" y="1015.5px" style="font-family:'Montserrat-Bold', 'Montserrat';font-weight:700;font-size:73px;fill:#732121;">y</text></g></g><g><g><rect x="392.752" y="89.43" width="46.124" height="46.124" style="fill:#dadbbf;stroke:#732222;stroke-width:2px;"/><rect x="438.862" y="89.43" width="46.124" height="46.124" style="fill:#732222;stroke:#732222;stroke-width:2px;"/></g><g><rect x="392.752" y="43.32" width="46.124" height="46.124" style="fill:#732222;stroke:#732222;stroke-width:2px;"/><rect x="438.862" y="43.32" width="46.124" height="46.124" style="fill:#dadbbf;stroke:#732222;stroke-width:2px;"/></g></g></g></svg>